HIERARCHY
ROOT Hips
{
     OFFSET 1.88212 96.90440 -13.34250
     CHANNELS 6 Xposition Yposition Zposition Zrotation Xrotation Yrotation
     JOINT Spine
     {
          OFFSET 0.00000 11.89050 0.00000
          CHANNELS 3 Zrotation Xrotation Yrotation
          JOINT Spine1
          {
               OFFSET -0.00000 25.65740 0.12766
               CHANNELS 3 Zrotation Xrotation Yrotation
               JOINT HEad
               {
                    OFFSET 0.00000 8.73416 0.01134
                    CHANNELS 3 Zrotation Xrotation Yrotation
                    End Site
                    {
                         OFFSET -0.29000 12.77420 2.51395
                    }
               }
               JOINT LeftShoulder1
               {
                    OFFSET 8.99000 -0.36225 -0.22000
                    CHANNELS 3 Zrotation Xrotation Yrotation
                    JOINT LeftArm
                    {
                         OFFSET 10.28270 -0.00338 0.32212
                         CHANNELS 3 Zrotation Xrotation Yrotation
                         JOINT LeftForeArm
                         {
                              OFFSET 32.76690 0.09914 -1.42434
                              CHANNELS 3 Zrotation Xrotation Yrotation
                              JOINT LeftHand
                              {
                                   OFFSET 27.56430 0.08536 1.02216
                                   CHANNELS 3 Zrotation Xrotation Yrotation
                                   End Site
                                   {
                                        OFFSET 16.74430 -0.60000 1.50291
                                   }
                              }
                         }
                    }
               }
               JOINT RightShoulder
               {
                    OFFSET -8.99000 -0.36225 -0.22000
                    CHANNELS 3 Zrotation Xrotation Yrotation
                    JOINT RightArm
                    {
                         OFFSET -10.28270 -0.00338 0.32212
                         CHANNELS 3 Zrotation Xrotation Yrotation
                         JOINT RightForeArm
                         {
                              OFFSET -32.89710 0.09914 -1.42434
                              CHANNELS 3 Zrotation Xrotation Yrotation
                              JOINT RightHand
                              {
                                   OFFSET -27.49210 0.08536 1.02216
                                   CHANNELS 3 Zrotation Xrotation Yrotation
                                   End Site
                                   {
                                        OFFSET -16.63120 -0.60000 1.50291
                                   }
                              }
                         }
                    }
               }
          }
     }
     JOINT LeftUpLeg
     {
          OFFSET 8.94580 -8.66707 0.10165
          CHANNELS 3 Zrotation Xrotation Yrotation
          JOINT LeftLeg
          {
               OFFSET 0.00000 -44.42270 1.37270
               CHANNELS 3 Zrotation Xrotation Yrotation
               JOINT LeftFoot
               {
                    OFFSET -0.25355 -42.09240 -1.46059
                    CHANNELS 3 Zrotation Xrotation Yrotation
                    JOINT LeftToes
                    {
                         OFFSET -0.04000 -4.41509 8.49910
                         CHANNELS 3 Zrotation Xrotation Yrotation
                         End Site
                         {
                              OFFSET 0.08000 -0.04745 9.77979
                         }
                    }
               }
          }
     }
     JOINT RightUpLeg
     {
          OFFSET -8.94580 -8.66707 0.10165
          CHANNELS 3 Zrotation Xrotation Yrotation
          JOINT RightLeg
          {
               OFFSET 0.00000 -44.42270 1.37270
               CHANNELS 3 Zrotation Xrotation Yrotation
               JOINT RightFoot
               {
                    OFFSET 0.25355 -42.09240 -1.46059
                    CHANNELS 3 Zrotation Xrotation Yrotation
                    JOINT RightToes
                    {
                         OFFSET 0.04000 -4.41509 8.49910
                         CHANNELS 3 Zrotation Xrotation Yrotation
                         End Site
                         {
                              OFFSET -0.08000 -0.13745 9.77979
                         }
                    }
               }
          }
     }
}
MOTION
Frames: 18
Frame Time: 0.01667
139.92351 95.60371 -8.21613 -7.89157 10.63449 -141.33141 1.81928 20.15397 -4.71987 -0.00452 0.03544 -0.00438 -2.14708 8.56378 9.92102 1.26481 7.38571 0.87254 -125.61428 -70.26776 -98.50925 -46.94386 56.64047 -73.69158 15.60283 3.87936 -13.90749 17.78563 7.62128 -0.83714 80.46786 2.09748 69.81416 3.16742 31.02488 104.90253 17.15230 10.98686 4.79046 12.16340 -1.43169 -12.54251 -8.80471 8.35431 57.88571 -8.40465 0.00022 0.00087 6.50661 0.81851 -54.77018 -13.74269 7.58179 10.78796 29.31945 1.66751 -35.05494 11.21390 0.00560 -0.04213 -37.61051 -30.84688 23.28452 
140.07178 95.31879 -8.13091 -7.71864 10.73439 -141.48285 2.23560 20.73341 -4.77647 -0.00923 0.03780 0.01805 -1.61009 8.20073 8.81287 0.93503 7.34166 1.55123 -120.89504 -67.58875 -94.32896 -48.61205 56.27922 -72.73582 13.62520 -2.09338 -17.42294 16.85488 7.60475 -0.43128 80.45421 -0.55911 68.95977 3.25236 30.53318 104.34800 21.49332 10.63990 -1.72838 11.83687 -2.08188 -12.11098 -7.86223 9.12131 57.37024 -8.64539 -0.00057 0.00104 3.74864 -0.98307 -63.30139 -14.52059 7.55790 11.02145 30.45809 4.56785 -35.04867 5.94129 -0.00500 -0.12138 -33.46333 -24.89928 20.46757 
140.24030 95.05446 -8.03993 -7.55205 10.83586 -141.55370 2.57613 21.59463 -4.51194 -0.01135 0.02996 0.02936 -0.81456 7.80642 6.90412 -0.82577 8.99233 5.32237 -116.63361 -61.18287 -92.17622 -52.84194 56.00627 -70.42054 11.59457 -7.94134 -22.43760 13.05641 9.16113 2.45299 82.59571 -6.29897 69.47122 2.64878 30.25352 104.01546 26.78753 10.85548 -8.25724 11.55166 -3.02852 -11.64864 -7.06894 10.35274 56.77546 -8.97023 -0.00105 0.00108 -0.37258 -2.77378 -73.72170 -15.74347 7.65100 11.45001 32.11985 8.38846 -35.05607 -0.13011 0.00764 -0.19870 -27.19159 -17.99179 20.38538 
140.40692 94.81281 -7.93075 -7.49491 10.92219 -141.32550 2.58162 22.97693 -2.73386 -0.02549 0.06898 0.09108 0.66678 7.86820 1.96857 -5.29239 12.71352 16.26586 -111.25703 -46.59627 -91.41753 -56.11328 55.52812 -68.89918 16.31833 1.63626 -18.45588 3.35317 11.54500 10.94794 87.17323 -17.66995 72.42976 -1.17972 28.38352 104.46085 32.45311 15.21385 -13.31226 11.26302 -5.05347 -11.07027 -6.90200 12.84387 55.99609 -9.28743 -0.00230 -0.00172 0.75671 -2.41205 -70.09516 -18.21990 7.97011 12.60207 35.24838 14.58572 -35.17617 -7.04628 0.09615 -0.37658 -16.95962 -27.98522 17.81648 
140.55548 94.55844 -7.76475 -7.60204 11.00661 -140.81955 2.30461 24.67590 0.35354 -0.01526 0.05580 0.08093 2.49093 7.53029 -4.10717 -4.62588 11.85095 14.55781 -109.44966 -44.81548 -90.09655 -58.75449 55.01012 -68.45898 15.46376 -1.08744 -20.61979 -5.82585 11.04086 18.06758 89.52938 -26.01353 73.99600 -8.89927 23.95117 102.94868 31.28348 12.71300 -18.23093 11.16333 -7.81009 -10.37699 -9.14480 15.46044 55.92590 -7.70744 -0.01425 0.01779 -0.93479 -4.40860 -73.90975 -21.71593 8.25463 14.48720 39.47894 21.78583 -35.76396 -11.56318 0.10132 -0.30027 -9.69050 -32.33892 15.39464 
140.70767 94.24285 -7.53415 -7.90740 11.08848 -140.08159 1.80055 26.56994 4.47157 -0.00404 0.05013 0.06423 4.45254 6.77931 -11.00920 -3.31212 11.12816 11.54768 -106.50016 -47.30787 -85.77856 -61.40380 55.39866 -71.98547 18.17972 4.61031 -18.32715 -14.25131 8.98757 23.02817 90.01813 -31.65526 73.32344 -18.47954 18.02579 97.80423 33.70094 12.42891 -21.01097 11.20234 -11.09450 -9.56419 -11.25125 19.75168 55.77921 -6.97017 -0.00334 0.01484 -1.56777 -6.06419 -74.17691 -25.06562 8.20903 16.16428 43.69912 30.03096 -36.87545 -15.80756 0.10586 -0.29775 -2.33715 -40.91514 12.69501 
140.90202 93.79566 -7.26271 -8.42048 11.15333 -139.16333 1.00867 28.95280 9.16852 -0.00332 0.04651 0.05419 6.37404 5.29019 -18.14301 -2.02407 10.02264 8.10263 -104.12716 -48.32252 -82.55666 -62.87787 55.37922 -74.44968 17.68971 2.93962 -19.43891 -22.72309 5.76537 26.65319 89.85600 -35.50068 71.81528 -27.98151 13.43258 87.20366 33.13540 5.05680 -24.36219 11.27703 -14.78122 -8.63075 -13.42953 25.29827 55.70348 -6.69799 0.00049 0.00799 -3.04277 -8.21331 -76.14977 -28.08650 7.83754 17.63413 48.07882 38.73664 -39.33165 -18.84044 0.07442 -0.22140 4.13620 -47.92547 10.97369 
141.16870 93.14037 -6.98914 -9.14530 11.15292 -138.11037 -0.23733 31.69374 14.37414 -0.00816 0.04059 0.03750 8.18640 3.14655 -25.26727 -3.84409 13.22740 15.08097 -102.84607 -37.02160 -84.09551 -63.13627 54.96927 -75.94075 19.14757 5.99097 -18.37117 -22.50657 5.41568 19.41401 80.48073 -29.45446 70.28053 -35.19930 10.69905 74.91358 37.02084 0.32960 -21.14450 11.26901 -18.78933 -7.58069 -15.77711 31.70251 55.84557 -6.60137 0.00342 0.00440 -4.35081 -10.44034 -77.21075 -30.24467 7.25056 18.85085 52.54166 42.69680 -42.56116 -24.02457 0.07718 -0.16222 10.12725 -52.09990 9.84129 
141.57298 92.29912 -6.74675 -10.03030 11.08353 -136.96031 -1.92270 34.21177 19.97006 -0.00797 0.02237 0.01767 9.91235 0.90760 -32.26466 -2.11441 11.52528 9.78840 -101.62098 -37.76006 -82.00057 -61.16453 50.60078 -75.71131 14.50939 3.99559 -21.93537 -30.66649 4.06113 19.85971 80.57951 -30.73865 70.06175 -37.29086 8.23070 62.39972 39.60222 -10.58306 -22.39846 11.15338 -23.02468 -6.42453 -18.31777 38.57817 56.31850 -6.47785 0.00613 0.00447 -5.96255 -12.77925 -78.65589 -31.90363 6.61651 19.86917 58.20840 46.01624 -48.29217 -26.59290 0.09687 -0.11116 13.79914 -55.93790 10.32433 
142.14902 91.38691 -6.58193 -11.01452 10.96267 -135.75130 -4.19649 36.52861 25.80173 -0.02057 0.03339 0.00333 11.68654 -1.53317 -38.80108 -0.45798 9.78196 4.75853 -100.64129 -38.05037 -79.97460 -59.90635 48.86610 -76.11657 27.86374 10.63154 -11.83828 -29.18143 5.16052 10.69053 72.29572 -23.05909 71.88209 -35.87695 3.53249 49.19225 37.01793 -0.64382 -16.77998 10.85364 -26.33072 -5.45442 -20.65285 44.33806 56.94447 -6.10091 0.00843 0.00793 -7.57139 -14.83101 -79.74782 -33.19996 6.06393 20.72945 62.81429 47.33400 -53.33839 -24.34051 -0.00840 0.03984 11.78090 -57.71786 10.65735 
142.88029 90.53745 -6.53425 -12.02580 10.82457 -134.53110 -7.28333 38.70173 31.64814 -0.03363 0.05236 -0.02374 13.64020 -4.25386 -44.34452 1.25484 7.81733 0.11561 -100.02055 -38.16145 -78.22746 -58.96093 48.63800 -76.77201 16.75820 6.97564 -21.42623 -27.51001 5.82085 2.26028 65.16872 -16.02272 76.64273 -35.28631 -3.94487 34.80048 37.31622 0.03023 -18.07648 10.42763 -28.75687 -4.65452 -22.50793 48.69681 57.42318 -5.33237 0.01015 0.01045 -9.21887 -16.33246 -80.72206 -34.24554 5.71393 21.47507 66.55312 47.71602 -57.69708 -25.30670 -0.00911 -0.00861 13.22105 -58.86475 11.36389 
143.68219 89.83242 -6.62885 -13.01076 10.66218 -133.31973 -9.81826 39.98132 36.02315 -0.00187 -0.03656 -0.06866 15.30757 -5.81903 -48.55335 2.57965 6.91827 -3.80562 -99.91161 -38.30402 -77.09133 -58.28156 48.87262 -76.98064 23.13908 8.04547 -14.95370 -25.77691 6.95145 -3.81263 60.47667 -12.16988 80.10248 -37.48830 -10.45146 26.86420 37.34288 7.72386 -15.28204 9.90145 -30.34641 -4.02294 -23.59789 51.56820 57.42247 -4.16882 0.01097 0.00829 -10.76424 -17.16852 -81.35472 -35.07143 5.58631 22.09994 69.51775 47.48604 -61.33812 -25.02497 0.00049 0.00739 13.11993 -59.46754 11.98816 
144.44914 89.29346 -6.87365 -13.89627 10.48652 -132.16028 -11.71895 40.63337 38.92321 0.00641 -0.02880 -0.06196 16.79826 -6.56998 -51.53918 3.70526 6.70102 -7.03054 -100.27969 -38.44232 -76.50496 -58.11320 49.50587 -76.65345 16.86696 5.73637 -20.56115 -23.31058 8.18055 -8.03164 57.38848 -10.41537 81.55943 -39.95260 -15.70641 22.84945 29.97066 2.01635 -0.33806 9.33127 -31.16090 -3.54024 -23.78235 53.04348 56.75925 -2.68967 0.01076 0.00211 -12.19482 -17.43943 -81.74874 -35.71014 5.68628 22.60548 71.80859 46.95382 -64.25922 -25.49935 0.00137 0.00284 13.85586 -59.91934 12.55386 
145.10394 88.91109 -7.26246 -14.63411 10.29932 -131.08775 -14.03330 41.44305 40.20672 -0.00877 0.05847 -0.12338 18.46480 -7.20649 -52.14302 4.74052 6.14570 -8.43151 -101.07189 -38.50208 -76.39493 -58.52761 50.31549 -75.60750 27.33390 -9.48065 -5.27342 -20.66722 8.14933 -10.02620 59.72345 -10.85457 80.82528 -35.38344 -19.88101 29.30688 25.57058 11.57663 6.51824 8.75270 -31.29368 -3.19015 -23.15653 53.32122 55.49251 -1.01089 0.00946 -0.00488 -13.48065 -17.33243 -81.94321 -36.20103 6.00384 22.98822 73.50224 46.27786 -66.46004 -25.50562 0.00514 0.00613 14.18949 -60.22493 13.12122 
145.60724 88.67433 -7.77425 -15.19568 10.10396 -130.13377 -16.45031 42.38454 39.83832 -0.00110 0.05036 -0.12018 20.04965 -7.36108 -50.80708 5.53848 5.60695 -8.20355 -102.19598 -38.44850 -76.54452 -66.36401 49.90815 -68.29552 23.17949 0.36383 -11.17756 -18.11675 7.38566 -10.30688 65.29721 -13.20677 79.17818 -24.94820 -21.17447 42.91189 19.59085 -0.25931 10.53628 8.20109 -30.86437 -2.95165 -21.98861 52.65120 53.86273 0.74599 0.00737 -0.00992 -14.63379 -17.04648 -82.05910 -36.56915 6.50695 23.24845 74.66764 45.57966 -67.98123 -25.52363 0.00682 0.00594 14.72418 -60.44279 13.69986 
145.94145 88.59314 -8.36042 -15.56190 9.92230 -129.33215 -18.72665 43.43933 37.92562 -0.00016 0.04242 -0.10597 21.44845 -6.98059 -47.81474 4.30911 10.68159 -16.19019 -108.83219 -43.66885 -85.82271 -68.01984 51.90534 -64.20232 24.46444 -0.72414 -12.55470 -4.92539 10.92016 -10.30676 65.09219 -18.84226 84.18028 -10.91668 -16.30166 59.08744 20.80500 17.24068 -2.04087 7.71894 -30.00014 -2.80087 -20.57336 51.28637 52.15337 2.48012 0.00517 -0.01206 -15.65450 -16.72538 -82.16122 -36.80867 7.14600 23.39862 75.35002 44.91304 -68.86713 -25.24398 0.00803 0.00699 15.10915 -60.47694 14.28064 
146.10147 88.66769 -8.96145 -15.72339 9.79355 -128.72171 -20.64066 44.64255 34.54876 0.01049 0.04022 -0.09344 22.46232 -6.05203 -43.44550 4.82361 9.38941 -12.26164 -110.80773 -41.05903 -84.78771 -69.74656 52.95539 -61.32686 21.73809 4.49904 -14.85758 -3.41713 9.15609 -7.47487 74.32519 -20.69568 82.72795 -1.63098 -7.00774 70.66068 12.18706 -1.37012 13.72468 7.34846 -28.82592 -2.71026 -19.13497 49.45702 50.59041 4.12336 0.00344 -0.01185 -16.54164 -16.45708 -82.28963 -36.90421 7.86190 23.46780 75.57683 44.30159 -69.15393 -24.81833 0.00861 0.00715 15.42807 -60.27130 14.76138 
146.05811 88.88634 -9.53322 -15.68767 9.76512 -128.33163 -22.03027 45.98364 29.84474 0.01159 0.03958 -0.07841 22.97308 -4.64681 -37.99493 4.85683 8.36009 -7.84913 -112.50187 -39.63083 -84.69573 -71.15598 53.53980 -59.27022 8.51361 -10.32189 -21.90442 8.48135 7.99514 -9.55642 74.46764 -18.53866 84.11794 4.30099 4.18692 78.43794 12.53126 17.10315 1.42066 7.11014 -27.44536 -2.66421 -17.80257 47.36255 49.31246 5.63299 0.00244 -0.01018 -17.28304 -16.30333 -82.44661 -37.18348 9.51860 22.95669 74.27534 43.97889 -67.37441 -24.29662 0.00912 0.00669 15.53772 -59.77237 15.06982 
